<svg width="251" height="61" viewBox="0 0 251 61" fill="none" xmlns="http://www.w3.org/2000/svg">
<path d="M34.1 38.12V0.139996H45.62V38.12C45.62 44.9 43.64 50.27 39.68 54.23C35.78 58.19 30.26 60.17 23.12 60.17C16.1 60.17 10.64 58.19 6.74 54.23C2.84 50.27 0.89 44.9 0.89 38.12V37.67H12.14V38.12C12.14 41.78 13.07 44.6 14.93 46.58C16.79 48.56 19.55 49.55 23.21 49.55C26.81 49.55 29.51 48.56 31.31 46.58C33.17 44.6 34.1 41.78 34.1 38.12ZM100.638 37.13V59H90.8281V50.72H90.6481C89.3881 53.6 87.3781 55.91 84.6181 57.65C81.8581 59.33 78.6181 60.17 74.8981 60.17C69.0781 60.17 63.9481 58.13 59.5081 54.05C55.1281 49.91 52.9381 44.15 52.9381 36.77C52.9381 29.99 55.1581 24.41 59.5981 20.03C64.0981 15.59 69.8581 13.37 76.8781 13.37C83.9581 13.37 89.6881 15.56 94.0681 19.94C98.4481 24.26 100.638 29.99 100.638 37.13ZM67.3381 46.49C69.7981 48.95 72.9781 50.18 76.8781 50.18C80.7781 50.18 83.9281 48.95 86.3281 46.49C88.7281 43.97 89.9281 40.73 89.9281 36.77C89.9281 32.81 88.7281 29.6 86.3281 27.14C83.9281 24.62 80.7781 23.36 76.8781 23.36C72.9781 23.36 69.7981 24.62 67.3381 27.14C64.9381 29.6 63.7381 32.81 63.7381 36.77C63.7381 40.73 64.9381 43.97 67.3381 46.49ZM153.414 59H142.704V35.87C142.704 31.73 141.684 28.61 139.644 26.51C137.664 24.41 134.934 23.36 131.454 23.36C127.974 23.36 125.214 24.41 123.174 26.51C121.194 28.61 120.204 31.73 120.204 35.87V59H109.494V35.87C109.494 28.61 111.474 23.06 115.434 19.22C119.394 15.32 124.734 13.37 131.454 13.37C138.174 13.37 143.514 15.29 147.474 19.13C151.434 22.97 153.414 28.55 153.414 35.87V59ZM195.438 37.67V14.54H206.148V37.67C206.148 44.93 204.168 50.51 200.208 54.41C196.248 58.25 190.908 60.17 184.188 60.17C177.468 60.17 172.128 58.25 168.168 54.41C164.208 50.57 162.228 44.99 162.228 37.67V14.54H172.938V37.67C172.938 41.81 173.928 44.93 175.908 47.03C177.948 49.13 180.708 50.18 184.188 50.18C187.668 50.18 190.398 49.13 192.378 47.03C194.418 44.93 195.438 41.81 195.438 37.67ZM249.613 27.32H238.993C238.873 25.94 238.183 24.83 236.923 23.99C235.723 23.15 234.103 22.73 232.063 22.73C229.783 22.73 228.013 23.21 226.753 24.17C225.553 25.07 224.953 26.3 224.953 27.86C224.953 29.06 225.583 29.99 226.843 30.65C228.103 31.31 229.693 31.73 231.613 31.91C233.533 32.03 235.573 32.33 237.733 32.81C239.953 33.29 242.023 33.89 243.943 34.61C245.863 35.33 247.453 36.62 248.713 38.48C249.973 40.34 250.603 42.71 250.603 45.59C250.603 49.85 248.893 53.36 245.473 56.12C242.053 58.82 237.553 60.17 231.973 60.17C226.393 60.17 221.893 58.85 218.473 56.21C215.113 53.51 213.373 50.06 213.253 45.86H224.053C224.173 49.16 226.753 50.81 231.793 50.81C237.133 50.81 239.803 49.07 239.803 45.59C239.803 44.39 239.173 43.49 237.913 42.89C236.653 42.23 235.063 41.84 233.143 41.72C231.223 41.54 229.153 41.24 226.933 40.82C224.773 40.34 222.733 39.74 220.813 39.02C218.893 38.3 217.303 37.01 216.043 35.15C214.783 33.23 214.153 30.8 214.153 27.86C214.153 23.6 215.773 20.12 219.013 17.42C222.253 14.72 226.543 13.37 231.883 13.37C237.163 13.37 241.393 14.69 244.573 17.33C247.813 19.97 249.493 23.3 249.613 27.32Z" fill="#6C8FE7"/>
</svg>
